<?xml version="1.0" encoding="UTF-8" standalone="no"?>
<!-- Created with Inkscape (http://www.inkscape.org/) -->

<svg
   width="3068.5784"
   height="946"
   viewBox="0 0 3068.5784 946"
   version="1.1"
   id="svg5"
   xml:space="preserve"
   xmlns:inkscape="http://www.inkscape.org/namespaces/inkscape"
   xmlns:sodipodi="http://sodipodi.sourceforge.net/DTD/sodipodi-0.dtd"
   xmlns="http://www.w3.org/2000/svg"
   xmlns:svg="http://www.w3.org/2000/svg"><sodipodi:namedview
     id="namedview7"
     pagecolor="#ffffff"
     bordercolor="#000000"
     borderopacity="0.25"
     inkscape:showpageshadow="2"
     inkscape:pageopacity="0.0"
     inkscape:pagecheckerboard="0"
     inkscape:deskcolor="#d1d1d1"
     inkscape:document-units="px"
     showgrid="false" /><defs
     id="defs2"><clipPath
       id="a"><path
         d="M 0,0 H 3321.12 V 946 H 0 Z"
         id="path9" /></clipPath></defs><g
     inkscape:label="Ebene 1"
     inkscape:groupmode="layer"
     id="layer1"
     transform="translate(1017.1509,12.900498)"><g
       style="isolation:isolate"
       id="g40"
       transform="translate(-1017.6009,-12.900498)"><g
         clip-path="url(#a)"
         id="g25"><clipPath
           id="b"><path
             fill="#ffffff"
             d="M 0,0 H 944.99 V 946 H 0 Z"
             id="path14" /></clipPath><g
           clip-path="url(#b)"
           id="g21"><path
             d="m 99.67,1.01 h 746.55 c 54.76,0 99.22,44.46 99.22,99.22 v 746.55 c 0,54.76 -44.46,99.22 -99.22,99.22 H 99.67 C 44.91,946 0.45,901.54 0.45,846.78 V 100.23 C 0.45,45.47 44.91,1.01 99.67,1.01 Z"
             fill="#ffffff"
             id="path17" /><path
             d="m 943.96,573.46 1.48,0.3 v 278.66 q -3.52,49.3 -33.95,71.73 -20.37,18.88 -56.68,21.84 H 90.83 Q 44.51,941.25 22.63,912.04 -2.3,886.23 0.8,832.35 v -90.33 l 6.2,-0.3 q 101.92,12.63 219.04,10.04 264.21,-10.33 470.56,-78.53 132.1,-41.48 247.37,-99.77 z M 125.72,1.13 H 813.83 Q 893.02,-6.35 923.31,35.07 950,63.28 945.14,123 v 116.85 a 869.22,869.22 0 0 1 -61.08,73.47 l -0.88,0.3 a 554.39,554.39 0 0 1 -43.38,45.15 l -1.47,0.88 -0.89,1.48 -10.33,9.15 -0.3,0.88 a 348.15,348.15 0 0 1 -37.47,32.16 l -0.3,0.89 q -82.53,70.01 -185.89,119.2 -62.62,31.82 -138.1,50.76 Q 362.58,605.96 223.09,600.73 97.82,592.34 0.9,555.59 L 1.2,404.81 q 41.5,26.95 92.06,44.85 37.47,14.75 83.21,21.25 41.77,8.68 94.42,6.49 118.7,-8.77 199.48,-55.48 53.58,-29.03 96.49,-68.75 l 1.47,-2.06 9.15,-7.97 2.06,-2.66 1.48,-0.88 2.07,-2.66 0.88,-0.3 8.56,-9.73 1.47,-0.89 12.7,-16.23 0.88,-0.3 a 668.27,668.27 0 0 0 33.34,-51.63 l 0.88,-0.3 q 6.78,-11.22 10.92,-25.08 4.2,-3.76 3.25,-12.68 l -1.48,-0.3 a 287.04,287.04 0 0 1 -24.2,28.92 l -1.47,0.88 -12.1,12.7 -1.47,0.88 -1.48,2.06 q -28.9,27.46 -66.68,46.03 -24.66,14 -55.77,21.54 -38.8,11.95 -93.54,7.97 -103.44,-14.59 -162.59,-73.47 l -0.88,-1.48 -9.15,-7.96 -2.07,-2.66 -1.47,-0.88 Q 160.28,193.49 135.75,96.16 128.88,76.18 127.78,50.42 123.37,28.69 125.72,1.15 Z"
             fill="#aacd73"
             id="path19" /></g><g
           id="g1792"
           transform="translate(0,-19.104478)"><path
             d="m 1364.23,773.80308 c -37.0533,0 -65.8133,-13.32 -86.28,-39.96 h -3.7 c 2.4667,24.7 3.7,39.69667 3.7,44.99 v 119.88 h -62.19 v -422.9 h 50.28 c 1.4133,5.46667 4.3267,18.52 8.74,39.16 h 3.17 c 19.4067,-29.64 48.52,-44.46 87.34,-44.46 36.52,0 64.97,13.23333 85.35,39.7 20.3733,26.46667 30.56,63.60667 30.56,111.42 0,47.81333 -10.3667,85.12667 -31.1,111.94 -20.7267,26.82 -49.35,40.23 -85.87,40.23 z m -15.09,-252.48 c -24.7,0 -42.74,7.23333 -54.12,21.7 -11.38,14.46667 -17.07,37.58 -17.07,69.34 v 9.27 c 0,35.64 5.6467,61.44 16.94,77.4 11.2933,15.97333 29.73,23.96 55.31,23.96 21.5267,0 38.11,-8.82333 49.75,-26.47 11.6467,-17.64 17.47,-42.78 17.47,-75.42 0,-32.82 -5.7767,-57.65333 -17.33,-74.5 -11.56,-16.85333 -28.5433,-25.28 -50.95,-25.28 z m 461.81,56.38 v 190.8 h -62.45 v -179.94 c 0,-22.58667 -4.5433,-39.43667 -13.63,-50.55 -9.0867,-11.12 -23.51,-16.68 -43.27,-16.68 -26.1133,0 -45.3,7.81 -57.56,23.43 -12.2667,15.61333 -18.4,41.76667 -18.4,78.46 v 145.3 h -62.19 v -411.81 h 62.2 v 104.54 c 0,16.76 -1.06,34.66667 -3.18,53.72 h 3.97 c 8.4667,-14.11333 20.2433,-25.05 35.33,-32.81 15.0867,-7.76667 32.6867,-11.65 52.8,-11.65 70.92,0 106.38,35.73 106.38,107.19 z m 159.59,190.8 -117.5,-292.7 h 67.74 l 59.55,165.94 c 9,23.64 15,45.87333 18,66.7 h 2.11 c 1.5867,-9.70667 4.5,-21.48667 8.74,-35.34 4.2333,-13.84667 26.64,-79.61333 67.22,-197.3 h 67.22 l -125.18,331.61 c -22.76,60.86667 -60.6933,91.3 -113.8,91.3 -13.76,0 -27.17,-1.5 -40.23,-4.5 v -49.22 c 9.3533,2.12 20.03,3.18 32.03,3.18 29.9933,0 51.0767,-17.38 63.25,-52.14 l 10.85,-27.52 z m 414.17,-83.36 c 0,28.58667 -10.41,50.51 -31.23,65.77 -20.8133,15.26 -50.63,22.89 -89.45,22.89 -38.9933,0 -70.31,-5.91 -93.95,-17.73 v -53.73 c 34.4,15.88 66.4233,23.82 96.07,23.82 38.2867,0 57.43,-11.55667 57.43,-34.67 0,-7.40667 -2.1167,-13.58 -6.35,-18.52 -4.24,-4.94 -11.21,-10.05667 -20.91,-15.35 -9.7067,-5.29333 -23.2067,-11.29333 -40.5,-18 -33.6933,-13.05333 -56.4933,-26.11 -68.4,-39.17 -11.9133,-13.05333 -17.87,-29.98667 -17.87,-50.8 0,-25.06 10.1,-44.51333 30.3,-58.36 20.2,-13.85333 47.68,-20.78 82.44,-20.78 34.4,0 66.9533,6.97 97.66,20.91 l -20.11,46.84 c -31.5867,-13.05333 -58.14,-19.58 -79.66,-19.58 -32.82,0 -49.23,9.35 -49.23,28.05 0,9.17333 4.28,16.94 12.84,23.3 8.5533,6.34667 27.21,15.08 55.97,26.2 24.1733,9.34667 41.7267,17.9 52.66,25.66 10.94,7.76667 19.0567,16.72 24.35,26.86 5.2933,10.14667 7.94,22.28 7.94,36.4 z m 129.41,-209.33 v 292.7 h -62.19 v -292.7 h 62.2 z m -65.9,-77.55 c 0,-11.11333 3.0467,-19.67 9.14,-25.67 6.0867,-6 14.7767,-9 26.07,-9 10.9333,0 19.4433,3 25.53,9 6.0867,6 9.13,14.55667 9.13,25.67 0,10.58667 -3.0433,18.92333 -9.13,25.01 -6.0867,6.08667 -14.5967,9.13 -25.53,9.13 -11.2933,0 -19.9833,-3.04333 -26.07,-9.13 -6.0867,-6.08667 -9.13,-14.42 -9.13,-25 z m 414.45,223.37 c 0,47.81333 -12.2633,85.12667 -36.79,111.94 -24.5267,26.82 -58.6667,40.23 -102.42,40.23 -27.3467,0 -51.5167,-6.17667 -72.51,-18.53 -21,-12.34667 -37.1433,-30.07667 -48.43,-53.19 -11.2933,-23.11333 -16.94,-49.93 -16.94,-80.45 0,-47.46667 12.1733,-84.52 36.52,-111.16 24.3467,-26.64 58.6633,-39.96 102.95,-39.96 42.34,0 75.8633,13.63333 100.57,40.9 24.7,27.25333 37.05,63.99333 37.05,110.22 z m -213.05,0 c 0,67.57333 24.9667,101.36 74.9,101.36 49.4,0 74.1,-33.78667 74.1,-101.36 0,-66.86667 -24.8767,-100.3 -74.63,-100.3 -26.1133,0 -45.0367,8.64333 -56.77,25.93 -11.7333,17.29333 -17.6,42.08333 -17.6,74.37 z"
             fill-rule="evenodd"
             fill="#555555"
             id="path23"
             style="fill:#555555;fill-opacity:1"
             sodipodi:nodetypes="sccsccccccscscssssscscscssccscscsccccscccssccccccccccsccscccccsccssccccscsccsscsccccccccccccssssssccscsccssscssssscs" /><text
             xml:space="preserve"
             style="font-size:279.807px;fill:#555555;fill-opacity:1;stroke-width:1.45733"
             x="1188.4457"
             y="292.22144"
             id="text301"><tspan
               sodipodi:role="line"
               id="tspan299"
               x="1188.4457"
               y="292.22144"
               style="font-size:279.807px;fill:#555555;fill-opacity:1;stroke-width:1.45733">mustermann's</tspan></text></g></g></g></g></svg>
